<svg width="1280" height="1802" viewBox="0 0 1280 1802" fill="none" xmlns="http://www.w3.org/2000/svg">
<g opacity="0.15">
<path opacity="0.0526316" d="M357.685 273.665C305.626 294.288 209.186 373.208 239.893 523.907C278.277 712.28 462.952 816.718 533.361 991.566C585.328 1120.62 634.715 1450.6 471.211 1604.66" stroke="#F6F5EF" stroke-width="1.45842"/>
<path opacity="0.105263" d="M460 262.748C405.421 278.532 299.305 348.095 311.475 500.071C326.688 690.042 498.471 809.925 547.363 989.356C583.449 1121.79 592.252 1452.98 409.852 1590.98" stroke="#F6F5EF" stroke-width="1.45842"/>
<path opacity="0.157895" d="M561.768 259.212C505.559 269.982 391.516 329.414 385.016 480.979C376.893 670.436 533.051 804.433 559.71 986.451C579.387 1120.79 547.603 1449.51 349.322 1569.91" stroke="#F6F5EF" stroke-width="1.45842"/>
<path opacity="0.210526" d="M1289.4 296.298C696.863 49.4105 484.062 317.194 458.984 466.71C427.637 653.606 567.398 800.269 571.751 982.909C574.964 1117.71 502.884 1440.4 289.811 1541.91" stroke="#F6F5EF" stroke-width="1.45842"/>
<path opacity="0.263158" d="M1249.41 314.521C810.483 126.994 576.503 311.351 533.128 457.152C478.909 639.404 600.536 797.1 582.5 978.325C569.187 1112.08 457.638 1425.15 232.365 1506.63" stroke="#F6F5EF" stroke-width="1.45842"/>
<path opacity="0.315789" d="M1240.72 324.387C964.938 202.635 668.18 311.881 606.981 452.371C530.483 627.983 632.642 794.981 592.41 972.809C562.716 1104.06 412.916 1404.08 177.909 1464.64" stroke="#F6F5EF" stroke-width="1.45842"/>
<path opacity="0.368421" d="M1237.76 340.478C1023.54 251.828 758.317 318.643 679.963 452.284C582.021 619.335 663.591 793.805 601.603 966.286C555.851 1093.59 369.437 1377.28 127.27 1416.26" stroke="#F6F5EF" stroke-width="1.45842"/>
<path opacity="0.421053" d="M1262.83 374.105C1070.2 273.94 846.155 331.442 751.501 456.771C633.185 613.433 693.271 793.462 610.202 958.71C548.892 1080.67 327.899 1344.93 81.2212 1361.91" stroke="#F6F5EF" stroke-width="1.45842"/>
<path opacity="0.473684" d="M1280.3 404.003C1067.53 342.244 930.945 350.008 821.028 465.652C683.631 610.208 721.572 793.822 618.331 950.025C542.132 1065.31 288.98 1307.24 40.4969 1302.04" stroke="#F6F5EF" stroke-width="1.45842"/>
<path opacity="0.526316" d="M1198.51 421.193C1146.67 396.739 1011.99 374.005 888.008 478.699C733.035 609.566 748.412 794.75 626.129 940.196C535.874 1047.55 253.335 1264.49 5.76852 1237.17" stroke="#F6F5EF" stroke-width="1.45842"/>
<path opacity="0.578947" d="M1269.16 466.424C1220.37 437.587 1088.62 403.062 951.941 495.661C781.087 611.409 773.729 796.134 633.739 929.234C530.416 1027.47 221.577 1217.06 -22.3626 1167.93" stroke="#F6F5EF" stroke-width="1.45842"/>
<path opacity="0.631579" d="M1332.78 515.559C1287.59 482.657 1160.23 436.723 1012.34 516.213C827.473 615.575 797.458 797.814 641.294 917.108C526.033 1005.16 194.279 1165.32 -43.3594 1094.92" stroke="#F6F5EF" stroke-width="1.45842"/>
<path opacity="0.684211" d="M1388.93 567.933C1347.82 531.327 1226.24 474.493 1068.76 540.004C871.911 621.892 819.566 799.641 648.938 903.823C523.002 980.717 171.965 1109.71 -56.7657 1018.81" stroke="#F6F5EF" stroke-width="1.45842"/>
<path opacity="0.736842" d="M1437.2 622.842C1400.63 582.938 1286.16 515.835 1120.82 566.65C914.14 630.169 840.036 801.471 656.813 889.398C521.581 954.295 155.108 1050.7 -62.2081 940.322" stroke="#F6F5EF" stroke-width="1.45842"/>
<path opacity="0.789474" d="M1477.28 679.548C1445.65 636.791 1339.55 560.169 1168.16 595.734C953.912 640.191 858.859 803.151 665.047 873.859C522 926.046 144.105 988.813 -59.4136 860.194" stroke="#F6F5EF" stroke-width="1.45842"/>
<path opacity="0.842105" d="M1508.97 737.283C1482.63 692.157 1386.07 606.888 1210.5 626.82C991.033 651.735 876.071 804.527 673.793 857.237C524.497 896.142 139.32 924.603 -48.1692 779.205" stroke="#F6F5EF" stroke-width="1.45842"/>
<path opacity="0.894737" d="M1532.14 795.49C1511.38 748.196 1425.41 654.64 1247.58 658.767C1025.31 663.925 891.694 805.78 683.166 840.155C529.257 865.527 141.018 859.378 -28.3866 697.806" stroke="#F6F5EF" stroke-width="1.45842"/>
<path opacity="0.947368" d="M1546.67 853.249C1531.72 804.627 1457.29 704.43 1279.18 692.612C1056.56 677.839 905.774 806.16 693.307 821.507C536.491 832.834 149.493 792.041 0.0505698 617.129" stroke="#F6F5EF" stroke-width="1.45842"/>
<path d="M1552.82 909.744C1543.84 860.292 1481.75 754.483 1305.3 726.872C1084.73 692.358 918.411 805.872 704.306 802.073C546.281 799.268 164.713 724.316 36.8503 537.866" stroke="#F6F5EF" stroke-width="1.45842"/>
</g>
</svg>
