<svg viewBox="0 0 240 240" xmlns="http://www.w3.org/2000/svg">

<defs>
  <radialGradient id="chrome" cx="40%" cy="30%">
    <stop offset="0%" stop-color="#F6F5EF"/>
    <stop offset="40%" stop-color="#BEC7C2"/>
    <stop offset="70%" stop-color="#93ABAE"/>
    <stop offset="100%" stop-color="#1F212D"/>
  </radialGradient>

  <filter id="shadow">
    <feDropShadow dx="0" dy="4" stdDeviation="5"
      flood-color="#000" flood-opacity="0.45"/>
  </filter>
</defs>

<circle cx="120" cy="120" r="102"
  fill="none" stroke="url(#chrome)" stroke-width="12"
  filter="url(#shadow)"/>

<circle cx="120" cy="120" r="45"
  fill="none" stroke="url(#chrome)" stroke-width="8"/>

<g stroke="url(#chrome)" stroke-width="7" stroke-linecap="round">
  <line x1="120" y1="15"  x2="120" y2="70"/>
  <line x1="120" y1="170" x2="120" y2="225"/>
  <line x1="15"  y1="120" x2="70"  y2="120"/>
  <line x1="170" y1="120" x2="225" y2="120"/>
  <line x1="38" y1="38" x2="78" y2="78"/>
  <line x1="160" y1="160" x2="200" y2="200"/>
  <line x1="38" y1="200" x2="78" y2="160"/>
  <line x1="160" y1="78"  x2="200" y2="38"/>
</g>

<g fill="url(#chrome)">
  <circle cx="120" cy="10" r="6"/>
  <circle cx="120" cy="230" r="6"/>
  <circle cx="10"  cy="120" r="6"/>
  <circle cx="230" cy="120" r="6"/>
  <circle cx="45"  cy="45"  r="6"/>
  <circle cx="195" cy="195" r="6"/>
  <circle cx="45"  cy="195" r="6"/>
  <circle cx="195" cy="45"  r="6"/>
</g>

<circle cx="120" cy="120" r="16"
  fill="url(#chrome)"/>

</svg>
